<svg preserveAspectRatio="none" width="100%" height="100%" overflow="visible" style="display: block;" viewBox="0 0 108 36" fill="none" xmlns="http://www.w3.org/2000/svg">
<g id="Link &#226;&#134;&#146; SVG">
<path id="Vector" d="M99.225 4.76837e-07H6.885C6.255 4.76837e-07 5.715 0.0900005 5.085 0.18C4.545 0.27 3.915 0.45 3.375 0.72C2.835 0.99 2.385 1.35 1.935 1.8C1.485 2.25 1.125 2.7 0.855001 3.24C0.585001 3.78 0.405001 4.41 0.315001 4.95C0.225001 5.58 0.135001 6.21 0.135001 6.75V29.16C0.135001 29.79 0.225001 30.33 0.315001 30.96C0.405001 31.59 0.585001 32.13 0.855001 32.67C1.125 33.3 1.485 33.75 1.935 34.2C2.385 34.65 2.835 35.01 3.375 35.28C3.915 35.55 4.455 35.73 5.085 35.82C5.715 35.91 6.255 36 6.885 36H101.025C101.655 36 102.195 35.91 102.825 35.82C103.455 35.73 103.995 35.55 104.535 35.28C105.075 35.01 105.525 34.65 105.975 34.2C106.425 33.75 106.785 33.3 107.055 32.76C107.325 32.22 107.505 31.68 107.595 31.05C107.685 30.42 107.775 29.88 107.775 29.25V28.44V8.55V7.56V6.75C107.775 6.12 107.685 5.58 107.595 4.95C107.505 4.32 107.325 3.78 107.055 3.24C106.515 2.16 105.615 1.26 104.535 0.72C103.995 0.45 103.455 0.27 102.825 0.18C102.195 0.0900005 101.655 4.76837e-07 101.025 4.76837e-07L99.225 4.76837e-07Z" fill="var(--fill-0, #A6A6A6)"/>
<path id="Vector_2" d="M7.695 35.19H6.885C6.345 35.19 5.715 35.1 5.175 35.01C4.635 34.92 4.185 34.74 3.645 34.56C3.195 34.29 2.745 34.02 2.385 33.66C2.025 33.3 1.665 32.85 1.485 32.4C1.215 31.95 1.125 31.41 1.035 30.87C0.945001 30.33 0.855001 29.79 0.855001 29.16V7.56V6.75C0.855001 6.21 0.945001 5.58 1.035 5.04C1.125 4.59 1.305 4.05 1.575 3.6C1.845 3.15 2.115 2.7 2.475 2.34C2.835 1.98 3.285 1.71 3.735 1.44C4.185 1.17 4.725 1.08 5.265 0.99C5.805 0.9 6.345 0.81 6.975 0.81H101.115C101.655 0.81 102.195 0.9 102.825 0.99C103.365 1.08 103.815 1.26 104.355 1.44C105.255 1.89 106.065 2.7 106.515 3.6C106.785 4.05 106.875 4.59 106.965 5.04C107.055 5.58 107.145 6.21 107.145 6.75V29.16C107.145 29.7 107.055 30.24 106.965 30.87C106.875 31.41 106.695 31.86 106.515 32.4C106.245 32.85 105.975 33.3 105.615 33.66C105.255 34.02 104.805 34.38 104.355 34.56C103.905 34.83 103.365 35.01 102.825 35.01C102.285 35.1 101.745 35.19 101.115 35.19H7.695Z" fill="var(--fill-0, black)"/>
<path id="Vector_3" d="M22.455 18.27C22.455 16.74 23.265 15.3 24.615 14.49C23.805 13.32 22.455 12.6 21.015 12.51C19.485 12.33 18.045 13.41 17.235 13.41C16.425 13.41 15.255 12.51 13.995 12.51C12.285 12.6 10.755 13.5 9.945 14.94C8.235 17.91 9.495 22.41 11.205 24.84C12.015 26.01 13.005 27.36 14.265 27.36C15.525 27.27 15.975 26.55 17.505 26.55C19.035 26.55 19.395 27.36 20.745 27.36C22.095 27.36 22.905 26.19 23.715 24.93C24.345 24.12 24.795 23.13 25.065 22.14C23.445 21.6 22.455 19.98 22.455 18.27ZM19.935 10.98C20.655 10.08 21.015 9 20.925 7.83C19.845 7.92 18.765 8.46 18.045 9.36C17.325 10.17 16.965 11.25 17.055 12.42C18.225 12.42 19.215 11.88 19.935 10.98ZM38.205 24.39H33.975L32.985 27.45H31.185L35.235 16.29H37.035L41.085 27.45H39.285L38.205 24.39ZM34.425 23.04H37.845L36.135 18.09H36.045L34.425 23.04ZM49.815 23.4C49.815 25.92 48.465 27.54 46.395 27.54C45.315 27.63 44.325 27 43.875 26.1V30.15H42.165V19.35H43.785V20.7C44.325 19.8 45.315 19.26 46.395 19.26C48.375 19.17 49.815 20.88 49.815 23.4ZM48.015 23.4C48.015 21.78 47.205 20.7 45.855 20.7C44.595 20.7 43.695 21.78 43.695 23.4C43.695 25.02 44.595 26.1 45.855 26.1C47.205 26.1 48.015 25.02 48.015 23.4ZM58.725 23.4C58.725 25.92 57.375 27.54 55.305 27.54C54.225 27.63 53.235 27 52.785 26.1V30.15H51.075V19.35H52.695V20.7C53.235 19.8 54.225 19.26 55.305 19.26C57.375 19.17 58.725 20.88 58.725 23.4ZM57.015 23.4C57.015 21.78 56.205 20.7 54.855 20.7C53.595 20.7 52.695 21.78 52.695 23.4C52.695 25.02 53.595 26.1 54.855 26.1C56.205 26.1 57.015 25.02 57.015 23.4ZM64.665 24.3C64.755 25.38 65.835 26.1 67.365 26.1C68.805 26.1 69.795 25.38 69.795 24.39C69.795 23.49 69.165 23.04 67.725 22.68L66.285 22.32C64.215 21.87 63.315 20.88 63.315 19.35C63.315 17.46 65.025 16.11 67.365 16.11C69.705 16.11 71.325 17.46 71.415 19.35H69.705C69.615 18.27 68.715 17.55 67.365 17.55C66.015 17.55 65.115 18.27 65.115 19.26C65.115 20.07 65.745 20.52 67.185 20.88L68.445 21.15C70.695 21.69 71.685 22.59 71.685 24.21C71.685 26.28 70.065 27.63 67.365 27.63C64.845 27.63 63.225 26.37 63.135 24.3H64.665ZM75.105 17.37V19.26H76.635V20.61H75.105V25.11C75.105 25.83 75.375 26.1 76.095 26.1H76.635V27.45C76.365 27.54 76.005 27.54 75.735 27.54C74.115 27.54 73.485 26.91 73.485 25.38V20.7H72.315V19.35H73.485V17.46H75.105V17.37ZM77.625 23.4C77.625 20.88 79.155 19.26 81.495 19.26C83.835 19.26 85.365 20.88 85.365 23.4C85.365 26.01 83.835 27.54 81.495 27.54C79.065 27.54 77.625 25.92 77.625 23.4ZM83.655 23.4C83.655 21.6 82.845 20.61 81.495 20.61C80.145 20.61 79.335 21.6 79.335 23.4C79.335 25.2 80.145 26.19 81.495 26.19C82.845 26.19 83.655 25.11 83.655 23.4ZM86.715 19.26H88.335V20.7C88.515 19.8 89.415 19.17 90.315 19.26C90.495 19.26 90.675 19.26 90.855 19.35V20.88C90.585 20.79 90.315 20.79 90.135 20.79C89.235 20.79 88.425 21.51 88.425 22.41V27.54H86.715V19.26ZM98.595 25.02C98.415 26.46 96.975 27.54 95.085 27.54C92.745 27.54 91.215 25.92 91.215 23.4C91.215 20.88 92.655 19.17 94.995 19.17C97.245 19.17 98.685 20.7 98.685 23.22V23.76H92.925V23.85C92.835 25.02 93.645 26.01 94.815 26.19H95.085C95.895 26.28 96.705 25.83 96.975 25.02H98.595ZM92.925 22.59H96.975C97.065 21.51 96.165 20.61 95.085 20.52H94.905C93.825 20.52 92.925 21.42 92.925 22.59Z" fill="var(--fill-0, white)"/>
<g id="Group">
<path id="Vector_4" d="M34.155 7.83C35.505 7.74 36.585 8.73 36.675 9.99V10.44C36.675 12.15 35.775 13.14 34.155 13.14H32.175V7.74L34.155 7.83ZM33.075 12.51H34.065C34.965 12.6 35.775 11.88 35.865 10.89V10.53C35.955 9.63 35.325 8.73 34.425 8.64H33.075V12.51ZM37.665 11.16C37.575 10.08 38.385 9.18 39.375 9.09C40.455 9 41.355 9.81 41.445 10.8V11.16C41.535 12.24 40.815 13.14 39.735 13.23C38.655 13.32 37.755 12.6 37.665 11.52V11.16ZM40.635 11.16C40.635 10.26 40.275 9.81 39.555 9.81C38.835 9.81 38.475 10.35 38.475 11.16C38.475 12.06 38.835 12.6 39.555 12.6C40.275 12.6 40.635 12.06 40.635 11.16ZM46.575 13.23H45.765L44.955 10.26H44.865L44.055 13.23H43.245L42.165 9.18H42.975L43.695 12.24H43.785L44.595 9.18H45.405L46.215 12.24H46.305L47.025 9.18H47.835L46.575 13.23ZM48.645 9.18H49.455V9.81H49.545C49.725 9.36 50.265 9.09 50.715 9.09C51.435 9 52.065 9.54 52.155 10.35V13.23H51.345V10.8C51.345 10.17 51.075 9.81 50.445 9.81C49.905 9.81 49.455 10.17 49.455 10.71V13.23H48.645V9.18ZM53.325 7.56H54.135V13.23H53.325V7.56ZM55.215 11.16C55.125 10.08 55.845 9.18 56.925 9.09C58.005 9 58.905 9.72 58.995 10.8V11.16C59.085 12.24 58.365 13.14 57.285 13.23C56.205 13.32 55.305 12.6 55.215 11.52V11.16ZM58.275 11.16C58.275 10.26 57.915 9.81 57.195 9.81C56.475 9.81 56.115 10.35 56.115 11.16C56.115 12.06 56.475 12.6 57.195 12.6C57.825 12.6 58.275 12.06 58.275 11.16ZM59.895 12.06C59.895 11.34 60.435 10.89 61.425 10.89L62.505 10.8V10.44C62.505 9.99 62.235 9.81 61.695 9.81C61.245 9.81 60.975 9.99 60.885 10.26H60.075C60.165 9.54 60.795 9.09 61.695 9.09C62.685 9.09 63.315 9.63 63.315 10.44V13.23H62.505V12.69H62.415C62.145 13.14 61.695 13.32 61.155 13.32C60.525 13.41 59.895 12.87 59.805 12.24C59.895 12.15 59.895 12.15 59.895 12.06ZM62.505 11.7V11.34L61.515 11.43C60.975 11.43 60.705 11.7 60.705 11.97C60.705 12.33 61.065 12.51 61.425 12.51C61.965 12.69 62.415 12.33 62.505 11.7C62.505 11.79 62.505 11.79 62.505 11.7ZM64.305 11.16C64.305 9.9 64.935 9.09 66.015 9.09C66.555 9.09 67.005 9.36 67.275 9.81H67.365V7.56H68.175V13.23H67.365V12.6H67.275C67.005 13.05 66.555 13.32 66.015 13.32C65.025 13.32 64.305 12.51 64.305 11.16ZM65.205 11.16C65.205 12.06 65.565 12.51 66.285 12.51C67.005 12.51 67.365 11.97 67.365 11.16C67.365 10.35 66.915 9.81 66.285 9.81C65.565 9.81 65.205 10.35 65.205 11.16ZM71.415 11.16C71.325 10.08 72.045 9.18 73.125 9.09C74.205 9 75.105 9.72 75.195 10.8V11.16C75.285 12.24 74.565 13.14 73.485 13.23C72.405 13.32 71.505 12.6 71.415 11.52V11.16ZM74.475 11.16C74.475 10.26 74.115 9.81 73.395 9.81C72.675 9.81 72.315 10.35 72.315 11.16C72.315 12.06 72.675 12.6 73.395 12.6C74.025 12.6 74.475 12.06 74.475 11.16ZM76.365 9.18H77.175V9.81H77.265C77.445 9.36 77.985 9.09 78.435 9.09C79.155 9 79.785 9.54 79.875 10.35V13.23H79.065V10.8C79.065 10.17 78.795 9.81 78.165 9.81C77.625 9.81 77.175 10.17 77.175 10.71V13.23H76.365V9.18ZM84.285 8.19V9.18H85.185V9.9H84.285V11.97C84.285 12.42 84.465 12.6 84.825 12.6H85.095V13.23H84.645C83.745 13.23 83.385 12.96 83.385 12.15V9.9H82.755V9.27H83.385V8.19H84.285ZM86.265 7.56H87.075V9.81H87.165C87.345 9.36 87.885 9 88.425 9.09C89.145 9.09 89.775 9.63 89.865 10.35V13.23H89.055V10.8C89.055 10.17 88.785 9.81 88.155 9.81C87.615 9.81 87.165 10.17 87.165 10.71V13.23H86.355V7.56H86.265ZM94.455 12.15C94.275 12.87 93.465 13.41 92.745 13.32C91.755 13.32 90.855 12.51 90.855 11.52V11.25C90.675 10.26 91.395 9.27 92.475 9.18H92.745C93.915 9.18 94.545 9.99 94.545 11.25V11.52H91.665V11.61C91.575 12.24 92.025 12.69 92.655 12.78H92.745C93.105 12.87 93.555 12.6 93.735 12.33H94.455V12.15ZM91.575 10.8H93.645C93.645 10.26 93.285 9.81 92.745 9.72H92.655C92.115 9.81 91.575 10.26 91.575 10.8Z" fill="var(--fill-0, white)"/>
</g>
</g>
</svg>
