<svg preserveAspectRatio="none" width="100%" height="100%" overflow="visible" style="display: block;" viewBox="0 0 122 36" fill="none" xmlns="http://www.w3.org/2000/svg">
<g id="Link &#226;&#134;&#146; SVG">
<path id="Vector" d="M117.25 36H4.75C2.23 36 0.250002 34.02 0.250002 31.5V4.5C0.250002 1.98 2.23 4.76837e-07 4.75 4.76837e-07H117.25C119.77 4.76837e-07 121.75 1.98 121.75 4.5V31.5C121.75 34.02 119.77 36 117.25 36Z" fill="var(--fill-0, black)"/>
<path id="Vector_2" d="M117.25 0.72C119.32 0.72 121.03 2.43 121.03 4.5V31.5C121.03 33.57 119.32 35.28 117.25 35.28H4.75C2.68 35.28 0.970002 33.57 0.970002 31.5V4.5C0.970002 2.43 2.68 0.72 4.75 0.72H117.25ZM117.25 4.76837e-07H4.75C2.23 4.76837e-07 0.250002 2.07 0.250002 4.5V31.5C0.250002 34.02 2.23 36 4.75 36H117.25C119.77 36 121.75 34.02 121.75 31.5V4.5C121.75 2.07 119.77 4.76837e-07 117.25 4.76837e-07Z" fill="var(--fill-0, #A6A6A6)"/>
<path id="Vector_3" d="M42.91 9.18C42.91 9.9 42.73 10.53 42.28 10.98C41.74 11.52 41.11 11.79 40.3 11.79C39.49 11.79 38.86 11.52 38.32 10.98C37.78 10.44 37.51 9.81 37.51 9C37.51 8.19 37.78 7.56 38.32 7.02C38.86 6.48 39.49 6.21 40.3 6.21C40.66 6.21 41.02 6.3 41.38 6.48C41.74 6.66 42.01 6.84 42.19 7.11L41.74 7.56C41.38 7.11 40.93 6.93 40.3 6.93C39.76 6.93 39.22 7.11 38.86 7.56C38.41 7.92 38.23 8.46 38.23 9.09C38.23 9.72 38.41 10.26 38.86 10.62C39.31 10.98 39.76 11.25 40.3 11.25C40.93 11.25 41.38 11.07 41.83 10.62C42.1 10.35 42.28 9.99 42.28 9.54H40.3V8.82H42.91V9.18ZM47.05 6.93H44.62V8.64H46.87V9.27H44.62V10.98H47.05V11.7H43.9V6.3H47.05V6.93ZM50.02 11.7H49.3V6.93H47.77V6.3H51.55V6.93H50.02V11.7ZM54.16 11.7V6.3H54.88V11.7H54.16ZM57.94 11.7H57.22V6.93H55.69V6.3H59.38V6.93H57.85L57.94 11.7ZM66.49 10.98C65.95 11.52 65.32 11.79 64.51 11.79C63.7 11.79 63.07 11.52 62.53 10.98C61.99 10.44 61.72 9.81 61.72 9C61.72 8.19 61.99 7.56 62.53 7.02C63.07 6.48 63.7 6.21 64.51 6.21C65.32 6.21 65.95 6.48 66.49 7.02C67.03 7.56 67.3 8.19 67.3 9C67.3 9.81 67.03 10.44 66.49 10.98ZM63.07 10.53C63.43 10.89 63.97 11.16 64.51 11.16C65.05 11.16 65.59 10.98 65.95 10.53C66.31 10.17 66.58 9.63 66.58 9C66.58 8.37 66.4 7.83 65.95 7.47C65.59 7.11 65.05 6.84 64.51 6.84C63.97 6.84 63.43 7.02 63.07 7.47C62.71 7.83 62.44 8.37 62.44 9C62.44 9.63 62.62 10.17 63.07 10.53ZM68.29 11.7V6.3H69.1L71.71 10.53V6.3H72.43V11.7H71.71L68.92 7.29V11.7H68.29Z" fill="var(--fill-0, white)" stroke="var(--stroke-2, white)" stroke-width="0.18" stroke-miterlimit="10"/>
<path id="Vector_4" d="M61.54 19.62C59.38 19.62 57.67 21.24 57.67 23.49C57.67 25.65 59.38 27.36 61.54 27.36C63.7 27.36 65.41 25.74 65.41 23.49C65.41 21.15 63.7 19.62 61.54 19.62ZM61.54 25.74C60.37 25.74 59.38 24.75 59.38 23.4C59.38 22.05 60.37 21.06 61.54 21.06C62.71 21.06 63.7 21.96 63.7 23.4C63.7 24.75 62.71 25.74 61.54 25.74ZM53.17 19.62C51.01 19.62 49.3 21.24 49.3 23.49C49.3 25.65 51.01 27.36 53.17 27.36C55.33 27.36 57.04 25.74 57.04 23.49C57.04 21.15 55.33 19.62 53.17 19.62ZM53.17 25.74C52 25.74 51.01 24.75 51.01 23.4C51.01 22.05 52 21.06 53.17 21.06C54.34 21.06 55.33 21.96 55.33 23.4C55.33 24.75 54.34 25.74 53.17 25.74ZM43.18 20.79V22.41H47.05C46.96 23.31 46.6 24.03 46.15 24.48C45.61 25.02 44.71 25.65 43.18 25.65C40.75 25.65 38.95 23.76 38.95 21.33C38.95 18.9 40.84 17.01 43.18 17.01C44.44 17.01 45.43 17.55 46.15 18.18L47.32 17.01C46.33 16.11 45.07 15.39 43.27 15.39C40.03 15.39 37.24 18.09 37.24 21.33C37.24 24.57 40.03 27.27 43.27 27.27C45.07 27.27 46.33 26.73 47.41 25.56C48.49 24.48 48.85 22.95 48.85 21.78C48.85 21.42 48.85 21.06 48.76 20.79H43.18ZM84.04 22.05C83.68 21.15 82.78 19.62 80.8 19.62C78.82 19.62 77.2 21.15 77.2 23.49C77.2 25.65 78.82 27.36 80.98 27.36C82.69 27.36 83.77 26.28 84.13 25.65L82.87 24.75C82.42 25.38 81.88 25.83 80.98 25.83C80.08 25.83 79.54 25.47 79.09 24.66L84.22 22.5L84.04 22.05ZM78.82 23.31C78.82 21.87 79.99 21.06 80.8 21.06C81.43 21.06 82.06 21.42 82.24 21.87L78.82 23.31ZM74.59 27H76.3V15.75H74.59V27ZM71.89 20.43C71.44 19.98 70.72 19.53 69.82 19.53C67.93 19.53 66.13 21.24 66.13 23.4C66.13 25.56 67.84 27.18 69.82 27.18C70.72 27.18 71.44 26.73 71.8 26.28H71.89V26.82C71.89 28.26 71.08 29.07 69.82 29.07C68.83 29.07 68.11 28.35 67.93 27.72L66.49 28.35C66.94 29.34 68.02 30.6 69.91 30.6C71.89 30.6 73.51 29.43 73.51 26.64V19.8H71.89V20.43ZM69.91 25.74C68.74 25.74 67.75 24.75 67.75 23.4C67.75 22.05 68.74 21.06 69.91 21.06C71.08 21.06 71.98 22.05 71.98 23.4C71.98 24.75 71.08 25.74 69.91 25.74ZM91.87 15.75H87.82V27H89.53V22.77H91.87C93.76 22.77 95.56 21.42 95.56 19.26C95.56 17.1 93.76 15.75 91.87 15.75ZM91.96 21.15H89.53V17.28H91.96C93.22 17.28 93.94 18.36 93.94 19.17C93.85 20.16 93.13 21.15 91.96 21.15ZM102.31 19.53C101.05 19.53 99.79 20.07 99.34 21.24L100.87 21.87C101.23 21.24 101.77 21.06 102.4 21.06C103.3 21.06 104.11 21.6 104.2 22.5V22.59C103.93 22.41 103.21 22.14 102.49 22.14C100.87 22.14 99.25 23.04 99.25 24.66C99.25 26.19 100.6 27.18 102.04 27.18C103.21 27.18 103.75 26.64 104.2 26.1H104.29V27H105.91V22.68C105.73 20.7 104.2 19.53 102.31 19.53ZM102.13 25.74C101.59 25.74 100.78 25.47 100.78 24.75C100.78 23.85 101.77 23.58 102.58 23.58C103.3 23.58 103.66 23.76 104.11 23.94C103.93 25.02 103.03 25.74 102.13 25.74ZM111.58 19.8L109.69 24.66H109.6L107.62 19.8H105.82L108.79 26.64L107.08 30.42H108.79L113.38 19.8H111.58ZM96.46 27H98.17V15.75H96.46V27Z" fill="var(--fill-0, white)"/>
<path id="Vector_5" d="M9.61 6.75C9.34 7.02 9.25 7.47 9.25 8.01V27.9C9.25 28.44 9.43 28.89 9.7 29.16L9.79 29.25L20.95 18.09V17.91L9.61 6.75Z" fill="url(#paint0_linear_0_12)"/>
<path id="Vector_6" d="M24.55 21.87L20.86 18.18V17.91L24.55 14.22L24.64 14.31L29.05 16.83C30.31 17.55 30.31 18.72 29.05 19.44L24.55 21.87Z" fill="url(#paint1_linear_0_12)"/>
<path id="Vector_7" d="M24.64 21.78L20.86 18L9.61 29.25C10.06 29.7 10.69 29.7 11.5 29.34L24.64 21.78Z" fill="url(#paint2_linear_0_12)"/>
<path id="Vector_8" d="M24.64 14.22L11.5 6.75C10.69 6.3 10.06 6.39 9.61 6.84L20.86 18L24.64 14.22Z" fill="url(#paint3_linear_0_12)"/>
<path id="Vector_9" opacity="0.2" d="M24.55 21.69L11.5 29.07C10.78 29.52 10.15 29.43 9.7 29.07L9.61 29.16L9.7 29.25C10.15 29.61 10.78 29.7 11.5 29.25L24.55 21.69Z" fill="var(--fill-0, black)"/>
<path id="Vector_10" opacity="0.12" d="M9.61 29.07C9.34 28.8 9.25 28.35 9.25 27.81V27.9C9.25 28.44 9.43 28.89 9.7 29.16V29.07H9.61ZM29.05 19.17L24.55 21.69L24.64 21.78L29.05 19.26C29.68 18.9 29.95 18.45 29.95 18C29.95 18.45 29.59 18.81 29.05 19.17Z" fill="var(--fill-0, black)"/>
<path id="Vector_11" opacity="0.25" d="M11.5 6.84L29.05 16.83C29.59 17.19 29.95 17.55 29.95 18C29.95 17.55 29.68 17.1 29.05 16.74L11.5 6.84C10.24 6.03 9.25 6.57 9.25 8.01V8.1C9.25 6.75 10.24 6.12 11.5 6.84Z" fill="var(--fill-0, white)"/>
</g>
<defs>
<linearGradient id="paint0_linear_0_12" x1="19.8655" y1="7.8345" x2="4.7608" y2="22.9383" gradientUnits="userSpaceOnUse">
<stop stop-color="#00BEFF"/>
<stop offset="0.007" stop-color="#00BEFF"/>
<stop offset="0.26" stop-color="#00BEFF"/>
<stop offset="0.512" stop-color="#00E3FF"/>
<stop offset="0.76" stop-color="#00E3FF"/>
<stop offset="1" stop-color="#00E3FF"/>
</linearGradient>
<linearGradient id="paint1_linear_0_12" x1="30.7006" y1="18.045" x2="8.9233" y2="18.045" gradientUnits="userSpaceOnUse">
<stop stop-color="#FFE000"/>
<stop offset="0.409" stop-color="#FF9C00"/>
<stop offset="0.775" stop-color="#FF9C00"/>
<stop offset="1" stop-color="#FF9C00"/>
</linearGradient>
<linearGradient id="paint2_linear_0_12" x1="22.5844" y1="20.0565" x2="2.1022" y2="40.5387" gradientUnits="userSpaceOnUse">
<stop stop-color="#FF3A44"/>
<stop offset="1" stop-color="#D7006C"/>
</linearGradient>
<linearGradient id="paint3_linear_0_12" x1="6.7849" y1="0.190801" x2="15.9316" y2="9.3375" gradientUnits="userSpaceOnUse">
<stop stop-color="#32A071"/>
<stop offset="0.069" stop-color="#2DA771"/>
<stop offset="0.476" stop-color="#15CF74"/>
<stop offset="0.801" stop-color="#06E775"/>
<stop offset="1" stop-color="#00F076"/>
</linearGradient>
</defs>
</svg>
