<svg preserveAspectRatio="none" width="100%" height="100%" overflow="visible" style="display: block;" viewBox="0 0 56 56" fill="none" xmlns="http://www.w3.org/2000/svg">
<g id="45d5a7b6-86eb-4850-9568-4d6ed91731fe.svg" clip-path="url(#clip0_0_4)">
<path id="Vector" d="M28 56C43.464 56 56 43.464 56 28C56 12.536 43.464 0 28 0C12.536 0 0 12.536 0 28C0 43.464 12.536 56 28 56Z" fill="var(--fill-0, white)"/>
<path id="Vector_2" d="M28 55.5C43.1878 55.5 55.5 43.1878 55.5 28C55.5 12.8122 43.1878 0.5 28 0.5C12.8122 0.5 0.5 12.8122 0.5 28C0.5 43.1878 12.8122 55.5 28 55.5Z" stroke="var(--stroke-0, #001325)" stroke-opacity="0.08"/>
<path id="Vector_3" d="M25.25 34.5C25.0509 34.5021 24.8558 34.4447 24.6896 34.3351C24.5235 34.2254 24.3939 34.0686 24.3176 33.8848C24.2412 33.7009 24.2216 33.4984 24.2613 33.3033C24.3009 33.1083 24.398 32.9295 24.54 32.79L29.34 28L24.54 23.21C24.4468 23.1141 24.3733 23.0008 24.3239 22.8766C24.2744 22.7523 24.2499 22.6196 24.2518 22.4859C24.2536 22.3521 24.2818 22.2201 24.3347 22.0973C24.3876 21.9744 24.4641 21.8632 24.56 21.77C24.6559 21.6768 24.7692 21.6033 24.8934 21.5539C25.0177 21.5044 25.1504 21.4799 25.2841 21.4818C25.4179 21.4836 25.5499 21.5118 25.6727 21.5647C25.7956 21.6176 25.9068 21.6941 26 21.79L31.5 27.29C31.5935 27.3831 31.6677 27.4937 31.7183 27.6156C31.7689 27.7374 31.795 27.8681 31.795 28C31.795 28.1319 31.7689 28.2626 31.7183 28.3844C31.6677 28.5063 31.5935 28.6169 31.5 28.71L26 34.21C25.9019 34.3076 25.7845 34.3838 25.6554 34.4337C25.5263 34.4836 25.3883 34.5062 25.25 34.5Z" fill="var(--fill-0, #001325)" fill-opacity="0.64"/>
</g>
<defs>
<clipPath id="clip0_0_4">
<rect width="56" height="56" fill="white"/>
</clipPath>
</defs>
</svg>
