<svg preserveAspectRatio="none" width="100%" height="100%" overflow="visible" style="display: block;" viewBox="0 0 47 47" fill="none" xmlns="http://www.w3.org/2000/svg">
<g id="Authenticity.svg" clip-path="url(#clip0_0_240)">
<path id="Vector" d="M23.16 46.32C35.95 46.32 46.32 35.95 46.32 23.16C46.32 10.37 35.95 0 23.16 0C10.37 0 0 10.37 0 23.16C0 35.95 10.37 46.32 23.16 46.32Z" fill="var(--fill-0, #DD1B73)"/>
<path id="Vector_2" d="M36.77 31.96L32.69 24.99C33.4616 23.5186 33.8631 21.8814 33.86 20.22C33.86 14.51 29.21 9.86 23.5 9.86C17.79 9.86 13.14 14.51 13.14 20.22C13.14 21.89 13.55 23.47 14.26 24.87L10.12 31.96C9.89 32.35 9.9 32.83 10.15 33.24C10.43 33.72 11 34.04 11.45 34.01L15.21 34.32C15.38 34.33 15.54 34.42 15.64 34.57L17.74 37.55C18.01 38.03 18.53 38.35 19.09 38.35H19.11C19.58 38.35 20 38.12 20.22 37.74L23.46 32.21L26.7 37.74C26.92 38.12 27.34 38.35 27.81 38.35H27.83C28.38 38.34 28.91 38.03 29.13 37.62L31.27 34.57C31.37 34.43 31.53 34.33 31.7 34.32L35.37 34.02H35.41C35.95 34.02 36.48 33.72 36.76 33.25C36.99 32.83 37 32.35 36.77 31.96ZM23.51 11.47C28.33 11.47 32.25 15.39 32.25 20.21C32.25 21.95 31.73 23.57 30.85 24.94L30.81 24.96L30.82 24.98C30.0267 26.1957 28.9429 27.1944 27.6665 27.8858C26.3902 28.5772 24.9616 28.9395 23.51 28.94C18.69 28.94 14.77 25.02 14.77 20.2C14.77 15.39 18.69 11.47 23.51 11.47ZM19.02 36.56L16.96 33.63C16.58 33.09 15.99 32.75 15.33 32.7L11.72 32.43L15.23 26.42C16.92 28.67 19.51 30.22 22.46 30.52L22.5 30.59L19.02 36.56ZM31.56 32.69C30.9 32.74 30.31 33.08 29.93 33.62L27.88 36.58L24.38 30.59L24.42 30.52C27.38 30.26 29.99 28.74 31.71 26.51L35.15 32.4L31.56 32.69Z" fill="var(--fill-0, white)"/>
<path id="Vector_3" d="M22.6 24.89L27.85 18.35C28.13 18 28.07 17.49 27.73 17.21C27.5621 17.0769 27.3486 17.0149 27.1355 17.0373C26.9224 17.0598 26.7265 17.1648 26.59 17.33L22.35 22.61L20.3 20.96C20.1321 20.8269 19.9186 20.7649 19.7055 20.7873C19.4924 20.8098 19.2965 20.9148 19.16 21.08C19.0271 21.248 18.9653 21.4614 18.9877 21.6745C19.0101 21.8875 19.1151 22.0833 19.28 22.22L22.6 24.89Z" fill="var(--fill-0, white)"/>
</g>
<defs>
<clipPath id="clip0_0_240">
<rect width="47" height="47" fill="white"/>
</clipPath>
</defs>
</svg>
