<svg preserveAspectRatio="none" width="100%" height="100%" overflow="visible" style="display: block;" viewBox="0 0 47 47" fill="none" xmlns="http://www.w3.org/2000/svg">
<g id="Brands.svg" clip-path="url(#clip0_0_161)">
<path id="Vector" d="M23.16 46.32C35.95 46.32 46.32 35.95 46.32 23.16C46.32 10.37 35.95 0 23.16 0C10.37 0 0 10.37 0 23.16C0 35.95 10.37 46.32 23.16 46.32Z" fill="var(--fill-0, #DD1B73)"/>
<path id="Vector_2" d="M16.43 26.1C16.3475 26.0143 16.2488 25.9457 16.1397 25.8983C16.0306 25.8508 15.9131 25.8254 15.7942 25.8236C15.6752 25.8217 15.557 25.8434 15.4465 25.8874C15.3359 25.9314 15.2351 25.9969 15.15 26.08C14.79 26.43 14.78 27 15.13 27.36L19 31.35C19.18 31.53 19.41 31.63 19.65 31.63C19.88 31.63 20.11 31.55 20.28 31.37C20.64 31.02 20.65 30.45 20.3 30.09L16.43 26.1ZM19.19 23.79C19.1075 23.7043 19.0088 23.6357 18.8997 23.5883C18.7906 23.5408 18.6731 23.5154 18.5542 23.5136C18.4352 23.5117 18.317 23.5334 18.2065 23.5774C18.0959 23.6214 17.9951 23.6869 17.91 23.77C17.55 24.12 17.54 24.69 17.89 25.05L21.76 29.04C21.94 29.22 22.17 29.32 22.41 29.32C22.64 29.32 22.87 29.24 23.04 29.06C23.4 28.71 23.41 28.14 23.06 27.78L19.19 23.79Z" fill="var(--fill-0, white)"/>
<path id="Vector_3" d="M34.42 11.47C33.5048 10.5761 32.2752 10.0773 30.9959 10.0811C29.7166 10.0848 28.4899 10.5908 27.58 11.49L24.99 14.02C24.92 14.09 24.86 14.18 24.79 14.26H20.24C19.9 14.26 19.57 14.4 19.33 14.64L8.17 25.85C7.68 26.35 7.67 27.15 8.16 27.65L18.45 38.2C18.7 38.46 19.03 38.59 19.37 38.59C19.7 38.59 20.03 38.47 20.28 38.21L31.75 26.72C31.99 26.48 32.12 26.15 32.12 25.82V20.51C32.25 20.47 32.37 20.41 32.48 20.31L34.32 18.62C34.8155 18.1678 35.2124 17.6182 35.486 17.0057C35.7596 16.3932 35.9039 15.7308 35.91 15.06C35.9251 14.3909 35.8003 13.726 35.5438 13.1078C35.2872 12.4896 34.9045 11.9318 34.42 11.47ZM30.31 25.59L19.37 36.54L9.83 26.75L20.46 16.07H23.75C23.61 16.53 23.51 17 23.51 17.49C23.5041 18.1391 23.6275 18.7829 23.873 19.3838C24.1186 19.9847 24.4813 20.5307 24.94 20.99L25.3 21.36C25.3832 21.4451 25.4824 21.5129 25.5918 21.5594C25.7013 21.606 25.8189 21.6305 25.9379 21.6314C26.0569 21.6323 26.1749 21.6097 26.2851 21.5648C26.3953 21.52 26.4955 21.4538 26.58 21.37C26.94 21.02 26.94 20.44 26.58 20.09L26.22 19.72C25.63 19.13 25.31 18.35 25.32 17.51C25.32 17 25.46 16.51 25.7 16.07H30.31V25.59ZM33.1 17.28L32.13 18.18V15.54C32.13 14.83 31.56 14.26 30.85 14.26H27.34L28.84 12.79C29.4138 12.224 30.1869 11.9058 30.993 11.9039C31.799 11.9021 32.5735 12.2166 33.15 12.78C33.77 13.38 34.11 14.18 34.1 15.04C34.09 15.9 33.74 16.7 33.1 17.28Z" fill="var(--fill-0, white)"/>
</g>
<defs>
<clipPath id="clip0_0_161">
<rect width="47" height="47" fill="white"/>
</clipPath>
</defs>
</svg>
