<svg preserveAspectRatio="none" width="100%" height="100%" overflow="visible" style="display: block;" viewBox="0 0 18 17.9519" fill="none" xmlns="http://www.w3.org/2000/svg">
<g id="Group" opacity="0.92">
<path id="Vector" d="M9.92928 17.9519C12.2034 17.7158 14.3024 16.6231 15.8001 14.8957C17.2978 13.1683 18.0819 10.9356 17.9932 8.65098C17.9046 6.3664 16.9498 4.20119 15.3227 2.59502C13.6956 0.98885 11.5182 0.06212 9.2327 0.0030113C6.94716 -0.0560974 4.7248 0.756846 3.01687 2.27677C1.30894 3.79669 0.243487 5.90965 0.0368533 8.18659C-0.16978 10.4635 0.497899 12.7338 1.90431 14.5363C3.31072 16.3389 5.35044 17.5386 7.60928 17.8919V11.7719H5.60928V9.6419H7.60928V8.2219C7.60928 5.8819 8.74928 4.8519 10.6993 4.8519C11.2543 4.8449 11.8093 4.8779 12.3593 4.9519V6.8119H10.9993C10.1793 6.8119 9.88928 7.5919 9.88928 8.4819V9.6419H12.3093L11.9793 11.7719H9.92928V17.9519Z" fill="var(--fill-0, #001325)"/>
</g>
</svg>
