<svg preserveAspectRatio="none" width="100%" height="100%" overflow="visible" style="display: block;" viewBox="0 0 47 47" fill="none" xmlns="http://www.w3.org/2000/svg">
<g id="Free-shipping.svg" clip-path="url(#clip0_0_156)">
<path id="Vector" d="M23.16 46.32C35.95 46.32 46.32 35.95 46.32 23.16C46.32 10.37 35.95 0 23.16 0C10.37 0 0 10.37 0 23.16C0 35.95 10.37 46.32 23.16 46.32Z" fill="var(--fill-0, #DD1B73)"/>
<path id="Vector_2" d="M28.78 30.17H28.11V31.99H28.27V31.96C28.27 31.3 28.46 30.69 28.78 30.17Z" fill="var(--fill-0, black)"/>
<path id="Vector_3" d="M38.63 22.97L35.74 18.6C35.28 17.91 34.52 17.5 33.69 17.5H29.01V15.87C29.01 14.51 27.91 13.41 26.55 13.41H10.89C9.53 13.41 8.43 14.51 8.43 15.87V29.53C8.43 30.89 9.53 31.99 10.89 31.99H11.88C11.8879 32.906 12.2566 33.782 12.9063 34.4278C13.5559 35.0737 14.434 35.4374 15.35 35.44C17.26 35.44 18.81 33.89 18.82 31.99H28.26C28.27 33.89 29.82 35.44 31.73 35.44C33.64 35.44 35.19 33.89 35.2 31.99H36.57C37.93 31.99 39.03 30.89 39.03 29.53V24.33C39.04 23.84 38.9 23.37 38.63 22.97ZM17.01 31.98C17 32.88 16.26 33.61 15.35 33.61C14.44 33.61 13.71 32.88 13.69 31.98V31.95C13.69 31.04 14.43 30.29 15.35 30.29C16.26 30.29 17.01 31.03 17.01 31.95V31.98ZM27.2 30.17H18.32C17.71 29.17 16.62 28.49 15.36 28.49C14.1 28.49 13.01 29.17 12.4 30.17H10.9C10.55 30.17 10.26 29.88 10.26 29.53V15.86C10.26 15.51 10.55 15.22 10.9 15.22H26.57C26.92 15.22 27.21 15.51 27.21 15.86V30.17H27.2ZM33.4 31.98C33.3851 32.409 33.2042 32.8154 32.8954 33.1136C32.5867 33.4118 32.1742 33.5785 31.745 33.5785C31.3158 33.5785 30.9033 33.4118 30.5946 33.1136C30.2858 32.8154 30.1049 32.409 30.09 31.98V31.95C30.09 31.04 30.83 30.29 31.75 30.29C32.67 30.29 33.41 31.03 33.41 31.95C33.4 31.97 33.4 31.97 33.4 31.98ZM37.22 29.53C37.22 29.88 36.93 30.17 36.58 30.17H34.7C34.09 29.17 33 28.49 31.74 28.49C30.63 28.49 29.65 29.02 29.01 29.84V19.31H33.69C33.91 19.31 34.11 19.42 34.22 19.6L37.11 23.97C37.18 24.08 37.22 24.2 37.22 24.32V29.53Z" fill="var(--fill-0, white)"/>
<path id="Vector_4" d="M21.54 19.97C20.94 19.47 20.04 19.56 19.49 20.11L19.04 20.56L18.59 20.11C18.04 19.56 17.14 19.46 16.54 19.97C16.3825 20.1016 16.2541 20.2645 16.1629 20.4483C16.0717 20.6322 16.0198 20.833 16.0104 21.038C16.001 21.243 16.0343 21.4477 16.1083 21.6392C16.1822 21.8306 16.2952 22.0046 16.44 22.15L19.03 24.74L19.04 24.73L19.05 24.74L21.64 22.15C22.24 21.54 22.21 20.53 21.54 19.97Z" fill="var(--fill-0, white)"/>
</g>
<defs>
<clipPath id="clip0_0_156">
<rect width="47" height="47" fill="white"/>
</clipPath>
</defs>
</svg>
