<svg preserveAspectRatio="none" width="100%" height="100%" overflow="visible" style="display: block;" viewBox="0 0 18 18" fill="none" xmlns="http://www.w3.org/2000/svg">
<g id="Group" opacity="0.92">
<path id="Vector" d="M12 5.21C11.8143 5.21 11.6363 5.28375 11.505 5.41503C11.3737 5.5463 11.3 5.72435 11.3 5.91C11.3 6.09565 11.3737 6.2737 11.505 6.40497C11.6363 6.53625 11.8143 6.61 12 6.61C12.1857 6.61 12.3637 6.53625 12.495 6.40497C12.6263 6.2737 12.7 6.09565 12.7 5.91C12.7 5.72435 12.6263 5.5463 12.495 5.41503C12.3637 5.28375 12.1857 5.21 12 5.21Z" fill="var(--fill-0, #001325)"/>
<path id="Vector_2" d="M9 0C7.8181 -1.76116e-08 6.64778 0.232792 5.55585 0.685084C4.46392 1.13738 3.47177 1.80031 2.63604 2.63604C1.80031 3.47177 1.13738 4.46392 0.685084 5.55585C0.232792 6.64778 0 7.8181 0 9C0 10.1819 0.232792 11.3522 0.685084 12.4442C1.13738 13.5361 1.80031 14.5282 2.63604 15.364C3.47177 16.1997 4.46392 16.8626 5.55585 17.3149C6.64778 17.7672 7.8181 18 9 18C11.3869 18 13.6761 17.0518 15.364 15.364C17.0518 13.6761 18 11.3869 18 9C18 6.61305 17.0518 4.32387 15.364 2.63604C13.6761 0.948211 11.3869 3.55683e-08 9 0ZM14 12C14 12.5304 13.7893 13.0391 13.4142 13.4142C13.0391 13.7893 12.5304 14 12 14H6C5.46957 14 4.96086 13.7893 4.58579 13.4142C4.21071 13.0391 4 12.5304 4 12V6C4 5.46957 4.21071 4.96086 4.58579 4.58579C4.96086 4.21071 5.46957 4 6 4H12C12.5304 4 13.0391 4.21071 13.4142 4.58579C13.7893 4.96086 14 5.46957 14 6V12Z" fill="var(--fill-0, #001325)"/>
<path id="Vector_3" d="M9 6.74C8.46006 6.74 7.93224 6.90011 7.48329 7.20009C7.03435 7.50006 6.68444 7.92643 6.47781 8.42527C6.27118 8.92412 6.21712 9.47303 6.32246 10.0026C6.42779 10.5322 6.6878 11.0186 7.0696 11.4004C7.4514 11.7822 7.93783 12.0422 8.4674 12.1475C8.99697 12.2529 9.54588 12.1988 10.0447 11.9922C10.5436 11.7856 10.9699 11.4357 11.2699 10.9867C11.5699 10.5378 11.73 10.0099 11.73 9.47C11.7313 9.11112 11.6616 8.75553 11.5249 8.42371C11.3882 8.0919 11.1871 7.79042 10.9333 7.53665C10.6796 7.28288 10.3781 7.08184 10.0463 6.94512C9.71447 6.80839 9.35888 6.73868 9 6.74ZM9 11C8.59422 11 8.20506 10.8388 7.91813 10.5519C7.6312 10.2649 7.47 9.87578 7.47 9.47C7.47 9.06422 7.6312 8.67506 7.91813 8.38813C8.20506 8.1012 8.59422 7.94 9 7.94C9.40578 7.94 9.79494 8.1012 10.0819 8.38813C10.3688 8.67506 10.53 9.06422 10.53 9.47C10.53 9.87578 10.3688 10.2649 10.0819 10.5519C9.79494 10.8388 9.40578 11 9 11Z" fill="var(--fill-0, #001325)"/>
</g>
</svg>
