<svg preserveAspectRatio="none" width="100%" height="100%" overflow="visible" style="display: block;" viewBox="0 0 17.9806 18" fill="none" xmlns="http://www.w3.org/2000/svg">
<g id="Group" opacity="0.92">
<path id="Vector" d="M8.98061 0C6.92489 0.0044315 4.93264 0.712491 3.33521 2.00641C1.73778 3.30033 0.631452 5.10213 0.200239 7.11212C-0.230974 9.12211 0.0389134 11.2192 0.965014 13.0545C1.89111 14.8898 3.41761 16.3527 5.29061 17.2C5.29061 16.8 5.86061 14.69 5.93061 14.37C6.09061 13.71 6.93061 10.16 6.93061 10.16C6.75869 9.76605 6.67343 9.33976 6.68061 8.91C6.68061 7.73 7.36061 6.86 8.21061 6.86C8.35848 6.85678 8.50539 6.88455 8.64188 6.94151C8.77838 6.99847 8.90144 7.08337 9.00316 7.19074C9.10488 7.29811 9.18301 7.42558 9.23251 7.56496C9.28202 7.70433 9.30181 7.85252 9.29061 8C9.13841 8.95503 8.90421 9.89518 8.59061 10.81C8.54356 10.9962 8.54076 11.1908 8.58244 11.3783C8.62411 11.5657 8.7091 11.7408 8.8306 11.8895C8.9521 12.0383 9.10674 12.1565 9.28213 12.2347C9.45751 12.3129 9.64878 12.349 9.84061 12.34C11.3506 12.34 12.5006 10.76 12.5006 8.47C12.5138 8.00873 12.4311 7.54974 12.2575 7.12215C12.084 6.69457 11.8234 6.30772 11.4925 5.98615C11.1615 5.66458 10.7673 5.41531 10.3349 5.25416C9.90249 5.093 9.44131 5.02348 8.98061 5.05C8.48584 5.02835 7.99181 5.10733 7.52846 5.28217C7.0651 5.45702 6.64205 5.72408 6.28491 6.06719C5.92778 6.4103 5.64399 6.82232 5.45074 7.27831C5.25749 7.73429 5.15878 8.22476 5.16061 8.72C5.1619 9.41366 5.3824 10.0892 5.79061 10.65C5.82057 10.6814 5.84186 10.72 5.85238 10.7621C5.8629 10.8041 5.86229 10.8482 5.85061 10.89C5.78061 11.16 5.64061 11.73 5.61061 11.89C5.58061 12.05 5.48061 12 5.32061 12C4.77738 11.6484 4.3338 11.1629 4.03256 10.5902C3.73132 10.0174 3.58257 9.37685 3.60061 8.73C3.60061 6.06 5.54061 3.61 9.19061 3.61C9.85469 3.58191 10.5177 3.6865 11.1409 3.91767C11.7641 4.14884 12.3349 4.50193 12.82 4.95632C13.3051 5.4107 13.6948 5.95724 13.9662 6.56399C14.2376 7.17073 14.3853 7.8255 14.4006 8.49C14.4006 11.41 12.5706 13.75 10.0206 13.75C9.63911 13.7607 9.26112 13.6746 8.92189 13.4997C8.58266 13.3249 8.29324 13.0669 8.08061 12.75C8.08061 12.75 7.66061 14.37 7.55061 14.75C7.44061 15.13 6.76061 17.22 6.55061 17.62C7.33901 17.859 8.15688 17.9869 8.98061 18C10.1625 18 11.3328 17.7672 12.4248 17.3149C13.5167 16.8626 14.5088 16.1997 15.3446 15.364C16.1803 14.5282 16.8432 13.5361 17.2955 12.4442C17.7478 11.3522 17.9806 10.1819 17.9806 9C17.9806 7.8181 17.7478 6.64778 17.2955 5.55585C16.8432 4.46392 16.1803 3.47177 15.3446 2.63604C14.5088 1.80031 13.5167 1.13738 12.4248 0.685084C11.3328 0.232792 10.1625 -1.76116e-08 8.98061 0Z" fill="var(--fill-0, #001325)"/>
</g>
</svg>
