<svg preserveAspectRatio="none" width="100%" height="100%" overflow="visible" style="display: block;" viewBox="0 0 47 47" fill="none" xmlns="http://www.w3.org/2000/svg">
<g id="return_accepted.svg" clip-path="url(#clip0_0_165)">
<path id="Vector" d="M28.78 30.17H28.109V31.99H28.269V31.96C28.27 31.3 28.46 30.689 28.78 30.17Z" fill="var(--fill-0, black)"/>
<path id="Vector_2" d="M38.63 22.97L35.74 18.6C35.5159 18.2612 35.2112 17.9834 34.8532 17.7914C34.4952 17.5994 34.0952 17.4993 33.689 17.5H29.009V15.87C29.009 14.51 27.909 13.41 26.549 13.41H10.89C9.53 13.41 8.43 14.51 8.43 15.87V29.53C8.43 30.89 9.53 31.99 10.89 31.99H11.88C11.8879 32.906 12.2566 33.782 12.9063 34.4278C13.5559 35.0737 14.434 35.4374 15.35 35.44C17.26 35.44 18.81 33.89 18.82 31.99H28.26C28.27 33.89 29.821 35.44 31.731 35.44C33.641 35.44 35.19 33.89 35.2 31.99H36.571C37.93 31.99 39.03 30.89 39.03 29.53V24.33C39.04 23.84 38.9 23.37 38.63 22.97ZM17.01 31.98C17 32.88 16.26 33.61 15.35 33.61C14.44 33.61 13.71 32.881 13.69 31.98V31.95C13.69 31.04 14.43 30.29 15.35 30.29C16.26 30.29 17.01 31.03 17.01 31.95V31.98ZM27.199 30.17H18.32C17.71 29.17 16.62 28.49 15.36 28.49C14.1 28.49 13.01 29.17 12.4 30.17H10.9C10.7306 30.169 10.5684 30.1012 10.4486 29.9814C10.3288 29.8616 10.261 29.6994 10.26 29.53V15.86C10.26 15.51 10.55 15.22 10.9 15.22H26.57C26.92 15.22 27.21 15.51 27.21 15.86V30.17H27.199ZM33.4 31.98C33.39 32.88 32.65 33.61 31.74 33.61C30.83 33.61 30.099 32.881 30.09 31.98V31.95C30.09 31.04 30.83 30.29 31.75 30.29C32.67 30.29 33.41 31.03 33.41 31.95C33.4 31.971 33.4 31.971 33.4 31.98ZM37.22 29.53C37.22 29.881 36.93 30.17 36.58 30.17H34.699C34.3921 29.659 33.9585 29.2358 33.4401 28.9415C32.9217 28.6472 32.3361 28.4917 31.74 28.49C31.212 28.4911 30.6913 28.6134 30.218 28.8475C29.7447 29.0815 29.3314 29.4211 29.01 29.84V19.31H33.69C33.911 19.31 34.11 19.42 34.22 19.6L37.11 23.97C37.18 24.08 37.22 24.2 37.22 24.32V29.53Z" fill="var(--fill-0, white)"/>
<path id="Vector_3" d="M21.54 19.97C20.94 19.47 20.04 19.56 19.49 20.11L19.04 20.56L18.59 20.11C18.04 19.56 17.14 19.46 16.54 19.97C16.3825 20.1016 16.2541 20.2645 16.1629 20.4483C16.0717 20.6322 16.0198 20.833 16.0104 21.038C16.001 21.243 16.0343 21.4477 16.1083 21.6392C16.1822 21.8306 16.2952 22.0046 16.44 22.15L19.03 24.74L19.04 24.73L19.05 24.74L21.64 22.15C22.24 21.54 22.21 20.53 21.54 19.97Z" fill="var(--fill-0, white)"/>
<path id="Vector_4" d="M23.5 46.703C36.314 46.703 46.704 36.314 46.704 23.501C46.704 10.686 36.314 0.297 23.5 0.297C10.685 0.297 0.297 10.685 0.297 23.501C0.296 36.314 10.684 46.703 23.5 46.703Z" fill="var(--fill-0, #DD1B73)"/>
<path id="Vector_5" d="M7.107 24.123C6.93046 24.1234 6.75747 24.0734 6.60834 23.9789C6.4592 23.8844 6.34011 23.7494 6.26505 23.5896C6.18998 23.4298 6.16206 23.2519 6.18454 23.0768C6.20703 22.9017 6.279 22.7366 6.392 22.601L10.563 17.579L15.585 21.73C15.679 21.8081 15.7567 21.9039 15.8136 22.0119C15.8706 22.12 15.9057 22.2383 15.9169 22.3599C15.9282 22.4816 15.9153 22.6043 15.8791 22.7209C15.8429 22.8376 15.7841 22.9461 15.706 23.04C15.6283 23.1343 15.5328 23.2124 15.4249 23.2696C15.3169 23.3269 15.1987 23.3623 15.0771 23.3737C14.9554 23.3851 14.8327 23.3724 14.716 23.3363C14.5993 23.3001 14.4909 23.2412 14.397 23.163L10.807 20.188L7.822 23.787C7.73578 23.8932 7.62671 23.9786 7.50291 24.0367C7.37911 24.0949 7.24378 24.1244 7.107 24.123Z" fill="var(--fill-0, white)"/>
<path id="Vector_6" d="M24.022 37.635C23.242 37.635 22.445 37.573 21.669 37.44C13.968 36.161 8.74 28.862 10.01 21.179L10.195 19.708C10.225 19.464 10.3504 19.2418 10.5438 19.09C10.7372 18.9382 10.9829 18.8692 11.227 18.898C11.471 18.9285 11.693 19.0544 11.8445 19.2482C11.9959 19.442 12.0644 19.6878 12.035 19.932L11.851 21.435C10.746 28.143 15.288 34.483 21.974 35.598C23.5652 35.8683 25.1941 35.8206 26.7667 35.4576C28.3393 35.0946 29.8243 34.4234 31.136 33.483C32.4507 32.5498 33.5671 31.3648 34.4205 29.9969C35.2738 28.6289 35.847 27.1052 36.107 25.514C37.211 18.837 32.67 12.508 25.983 11.392C24.0472 11.0696 22.0624 11.2153 20.1945 11.8169C18.3266 12.4185 16.6298 13.4585 15.246 14.85C15.1608 14.9374 15.0591 15.0068 14.9467 15.0542C14.8343 15.1016 14.7135 15.126 14.5915 15.126C14.4695 15.126 14.3487 15.1016 14.2363 15.0542C14.1239 15.0068 14.0222 14.9374 13.937 14.85C13.8494 14.7649 13.7797 14.6631 13.7321 14.5506C13.6846 14.4381 13.66 14.3172 13.66 14.195C13.66 14.0728 13.6846 13.9519 13.7321 13.8394C13.7797 13.7269 13.8494 13.6251 13.937 13.54C15.5314 11.9394 17.4853 10.7432 19.6359 10.0512C21.7865 9.35925 24.0714 9.19151 26.3 9.562C34 10.84 39.226 18.141 37.956 25.822C37.6587 27.6536 37.0002 29.4079 36.0189 30.9828C35.0377 32.5577 33.7531 33.9219 32.24 34.996C29.788 36.734 26.944 37.635 24.022 37.635Z" fill="var(--fill-0, white)"/>
<path id="Vector_7" d="M23.948 29.697L19.725 26.312C19.5336 26.1566 19.4112 25.9321 19.3843 25.6871C19.3573 25.442 19.428 25.1963 19.581 25.003C19.7362 24.8115 19.9607 24.6889 20.2057 24.6617C20.4508 24.6346 20.6966 24.7051 20.89 24.858L23.661 27.09L29.255 20.114C29.4104 19.9223 29.6352 19.7997 29.8806 19.7729C30.1259 19.7461 30.3719 19.8173 30.565 19.971C30.7552 20.1271 30.8768 20.3514 30.9039 20.596C30.931 20.8406 30.8614 21.086 30.71 21.28L23.948 29.697Z" fill="var(--fill-0, white)"/>
</g>
<defs>
<clipPath id="clip0_0_165">
<rect width="47" height="47" fill="white"/>
</clipPath>
</defs>
</svg>
