<svg preserveAspectRatio="none" width="100%" height="100%" overflow="visible" style="display: block;" viewBox="0 0 18 18" fill="none" xmlns="http://www.w3.org/2000/svg">
<g id="Group" opacity="0.92">
<path id="Vector" d="M9 0C7.8181 -1.76116e-08 6.64778 0.232792 5.55585 0.685084C4.46392 1.13738 3.47177 1.80031 2.63604 2.63604C1.80031 3.47177 1.13738 4.46392 0.685084 5.55585C0.232792 6.64778 0 7.8181 0 9C0 10.1819 0.232792 11.3522 0.685084 12.4442C1.13738 13.5361 1.80031 14.5282 2.63604 15.364C3.47177 16.1997 4.46392 16.8626 5.55585 17.3149C6.64778 17.7672 7.8181 18 9 18C11.3869 18 13.6761 17.0518 15.364 15.364C17.0518 13.6761 18 11.3869 18 9C18 6.61305 17.0518 4.32387 15.364 2.63604C13.6761 0.948211 11.3869 3.55683e-08 9 0ZM14.69 5.7C14.3965 6.13503 14.0313 6.51712 13.61 6.83V7C13.5955 8.64223 12.9923 10.2248 11.91 11.46C11.299 12.1588 10.5435 12.7166 9.69574 13.0947C8.84797 13.4729 7.92819 13.6623 7 13.65C5.74214 13.6638 4.50668 13.3168 3.44 12.65C3.39748 12.6215 3.36568 12.5796 3.34964 12.531C3.3336 12.4824 3.33425 12.4298 3.35146 12.3816C3.36868 12.3334 3.40149 12.2923 3.4447 12.2648C3.48791 12.2374 3.53904 12.2251 3.59 12.23C3.757 12.24 3.923 12.24 4.09 12.23C4.86178 12.2288 5.61873 12.018 6.28 11.62C5.88118 11.5144 5.51501 11.3109 5.21467 11.028C4.91434 10.7451 4.68932 10.3918 4.56 10C4.54854 9.96375 4.54715 9.92507 4.55595 9.88808C4.56476 9.8511 4.58344 9.8172 4.61 9.79C4.63581 9.76058 4.66843 9.73793 4.705 9.724C4.742 9.71 4.781 9.705 4.82 9.71C4.49359 9.48687 4.22525 9.18892 4.03738 8.84101C3.84951 8.49311 3.74755 8.10532 3.74 7.71C3.74191 7.67049 3.75282 7.63194 3.77188 7.59728C3.79094 7.56263 3.81766 7.53277 3.85 7.51C3.88527 7.49074 3.92481 7.48065 3.965 7.48065C4.00519 7.48065 4.04473 7.49074 4.08 7.51C4.13 7.51 4.2 7.51 4.26 7.58C3.96725 7.19748 3.79479 6.73658 3.76452 6.25585C3.73425 5.77511 3.84754 5.29622 4.09 4.88C4.1091 4.8478 4.13519 4.82029 4.16635 4.79952C4.1975 4.77875 4.23293 4.76525 4.27 4.76C4.30799 4.75881 4.34574 4.7663 4.3804 4.7819C4.41505 4.79749 4.4457 4.82078 4.47 4.85C4.99413 5.46961 5.63627 5.97878 6.35903 6.34789C7.0818 6.717 7.87076 6.93867 8.68 7C8.6752 6.92007 8.6752 6.83993 8.68 6.76C8.68628 6.2856 8.83018 5.82323 9.0942 5.42904C9.35822 5.03485 9.73102 4.7258 10.1673 4.53942C10.6036 4.35304 11.0847 4.29734 11.552 4.37911C12.0193 4.46087 12.4529 4.67656 12.8 5C13.2501 4.90615 13.6823 4.74072 14.08 4.51C14.1188 4.48502 14.1639 4.47174 14.21 4.47174C14.2561 4.47174 14.3012 4.48502 14.34 4.51C14.3755 4.53978 14.4012 4.57957 14.4136 4.62418C14.4261 4.66879 14.4249 4.71613 14.41 4.76C14.3259 5.0171 14.1973 5.25742 14.03 5.47C14.159 5.446 14.286 5.413 14.41 5.37C14.4559 5.35232 14.506 5.34859 14.5541 5.35926C14.6021 5.36993 14.6459 5.39454 14.68 5.43C14.7086 5.4688 14.7248 5.5153 14.7266 5.56346C14.7284 5.61162 14.7156 5.65919 14.69 5.7Z" fill="var(--fill-0, #001325)"/>
</g>
</svg>
