<svg preserveAspectRatio="none" width="100%" height="100%" overflow="visible" style="display: block;" viewBox="0 0 18 18" fill="none" xmlns="http://www.w3.org/2000/svg">
<g id="Group" opacity="0.92">
<path id="Vector" d="M9 0C7.8181 -1.76116e-08 6.64778 0.232792 5.55585 0.685084C4.46392 1.13738 3.47177 1.80031 2.63604 2.63604C1.80031 3.47177 1.13738 4.46392 0.685084 5.55585C0.232792 6.64778 0 7.8181 0 9C0 10.1819 0.232792 11.3522 0.685084 12.4442C1.13738 13.5361 1.80031 14.5282 2.63604 15.364C3.47177 16.1997 4.46392 16.8626 5.55585 17.3149C6.64778 17.7672 7.8181 18 9 18C11.3869 18 13.6761 17.0518 15.364 15.364C17.0518 13.6761 18 11.3869 18 9C18 6.61305 17.0518 4.32387 15.364 2.63604C13.6761 0.948211 11.3869 3.55683e-08 9 0ZM14.2 12.15C14.1442 12.3939 14.0208 12.617 13.8439 12.7939C13.667 12.9708 13.4439 13.0942 13.2 13.15C11.793 13.32 10.377 13.398 8.96 13.38C7.54313 13.3973 6.12668 13.3205 4.72 13.15C4.47665 13.0931 4.25405 12.9694 4.07734 12.7927C3.90063 12.616 3.77686 12.3934 3.72 12.15C3.59282 11.1051 3.55268 10.0515 3.6 9C3.58925 7.94212 3.66618 6.88517 3.83 5.84C3.88998 5.59813 4.01479 5.3772 4.19099 5.20099C4.3672 5.02479 4.58813 4.89998 4.83 4.84C6.21427 4.68323 7.60698 4.6131 9 4.63C10.4166 4.61326 11.8328 4.68674 13.24 4.85C13.4819 4.90998 13.7028 5.03479 13.879 5.21099C14.0552 5.3872 14.18 5.60813 14.24 5.85C14.3966 6.89243 14.4668 7.94601 14.45 9C14.4592 10.0446 14.3823 11.0881 14.22 12.12L14.2 12.15Z" fill="var(--fill-0, #001325)"/>
<path id="Vector_2" d="M8.35 7.32C8.30792 7.29792 8.26091 7.28691 8.2134 7.28801C8.1659 7.28911 8.11945 7.30228 8.07844 7.32629C8.03743 7.3503 8.0032 7.38435 7.97898 7.42523C7.95476 7.46612 7.94135 7.5125 7.94 7.56V10.38C7.94015 10.4278 7.953 10.4747 7.97723 10.5159C8.00146 10.5572 8.0362 10.5912 8.0779 10.6146C8.1196 10.638 8.16677 10.6499 8.21457 10.6491C8.26238 10.6483 8.30912 10.6348 8.35 10.61L10.79 9.2C10.8316 9.17647 10.8662 9.14231 10.8903 9.10102C10.9144 9.05974 10.9271 9.0128 10.9271 8.965C10.9271 8.9172 10.9144 8.87026 10.8903 8.82898C10.8662 8.78769 10.8316 8.75353 10.79 8.73L8.35 7.32Z" fill="var(--fill-0, #001325)"/>
</g>
</svg>
