<svg preserveAspectRatio="none" width="100%" height="100%" overflow="visible" style="display: block;" viewBox="0 0 27 29" fill="none" xmlns="http://www.w3.org/2000/svg">
<g id="Frame">
<g clip-path="url(#clip0_0_232)">
<path id="Vector" d="M9.64286 6.34375C9.64286 4.34434 11.3725 2.71875 13.5 2.71875C15.6275 2.71875 17.3571 4.34434 17.3571 6.34375V9.0625H9.64286V6.34375ZM6.75 9.0625H2.89286C1.29576 9.0625 0 10.2803 0 11.7812V23.5625C0 26.5645 2.59152 29 5.78571 29H21.2143C24.4085 29 27 26.5645 27 23.5625V11.7812C27 10.2803 25.7042 9.0625 24.1071 9.0625H20.25V6.34375C20.25 2.8377 17.2306 0 13.5 0C9.76942 0 6.75 2.8377 6.75 6.34375V9.0625ZM8.19643 11.7812C8.58005 11.7813 8.94795 11.9245 9.21921 12.1794C9.49047 12.4343 9.64286 12.7801 9.64286 13.1406C9.64286 13.5012 9.49047 13.8469 9.21921 14.1018C8.94795 14.3568 8.58005 14.5 8.19643 14.5C7.81281 14.5 7.44491 14.3568 7.17365 14.1018C6.90239 13.8469 6.75 13.5012 6.75 13.1406C6.75 12.7801 6.90239 12.4343 7.17365 12.1794C7.44491 11.9245 7.81281 11.7813 8.19643 11.7812ZM17.3571 13.1406C17.3571 12.7801 17.5095 12.4343 17.7808 12.1794C18.0521 11.9245 18.42 11.7813 18.8036 11.7812C19.1872 11.7813 19.5551 11.9245 19.8264 12.1794C20.0976 12.4343 20.25 12.7801 20.25 13.1406C20.25 13.5012 20.0976 13.8469 19.8264 14.1018C19.5551 14.3568 19.1872 14.5 18.8036 14.5C18.42 14.5 18.0521 14.3568 17.7808 14.1018C17.5095 13.8469 17.3571 13.5012 17.3571 13.1406Z" fill="var(--fill-0, #2C2C2C)"/>
</g>
</g>
<defs>
<clipPath id="clip0_0_232">
<path d="M0 0H27V29H0V0Z" fill="white"/>
</clipPath>
</defs>
</svg>
