<svg preserveAspectRatio="none" width="100%" height="100%" overflow="visible" style="display: block;" viewBox="0 0 11.2 10.5" fill="none" xmlns="http://www.w3.org/2000/svg">
<g id="Group">
<path id="Vector" d="M5.23826 0.204187C5.39974 -0.0680625 5.80026 -0.0680625 5.96174 0.204187L7.53718 2.86028C7.59633 2.96001 7.69546 3.03072 7.81032 3.05515L10.8696 3.70569C11.1832 3.77237 11.307 4.14642 11.0932 4.38136L9.0076 6.67345C8.9293 6.75951 8.8914 6.87393 8.9032 6.98876L9.2186 10.0469C9.2509 10.3604 8.9268 10.5916 8.6332 10.4645L5.76881 9.22498C5.66126 9.17848 5.53874 9.17848 5.43119 9.22498L2.56676 10.4645C2.27316 10.5916 1.94913 10.3604 1.98145 10.0469L2.29677 6.98876C2.30861 6.87393 2.27075 6.75951 2.19244 6.67345L0.106798 4.38136C-0.106972 4.14642 0.0167979 3.77237 0.330368 3.70569L3.38968 3.05515C3.50455 3.03072 3.60367 2.96001 3.66282 2.86028L5.23826 0.204187Z" fill="var(--fill-0, #CE7C6D)"/>
</g>
</svg>
