<svg preserveAspectRatio="none" width="100%" height="100%" overflow="visible" style="display: block;" viewBox="0 0 18 18" fill="none" xmlns="http://www.w3.org/2000/svg">
<g id="Frame">
<path d="M18 18H0V0H18V18Z" stroke="var(--stroke-0, #E5E7EB)"/>
<path id="Vector" d="M1.125 1.125H16.875C17.4973 1.125 18 1.62773 18 2.25V3.375C18 3.99727 17.4973 4.5 16.875 4.5H1.125C0.502734 4.5 0 3.99727 0 3.375V2.25C0 1.62773 0.502734 1.125 1.125 1.125ZM1.125 5.625H16.875V14.625C16.875 15.866 15.866 16.875 14.625 16.875H3.375C2.13398 16.875 1.125 15.866 1.125 14.625V5.625ZM5.625 8.4375C5.625 8.74688 5.87812 9 6.1875 9H11.8125C12.1219 9 12.375 8.74688 12.375 8.4375C12.375 8.12812 12.1219 7.875 11.8125 7.875H6.1875C5.87812 7.875 5.625 8.12812 5.625 8.4375Z" fill="var(--fill-0, #C57BAA)"/>
</g>
</svg>
