<svg preserveAspectRatio="none" width="100%" height="100%" overflow="visible" style="display: block;" viewBox="0 0 44 44" fill="none" xmlns="http://www.w3.org/2000/svg">
<g id="Frame">
<path d="M44 44H0V0H44V44Z" stroke="var(--stroke-0, #E5E7EB)"/>
<path id="Vector" d="M20.1996 39.0475L20.0092 38.8634L6.66387 25.8408C4.32539 23.5597 3 20.358 3 17.0043V16.7402C3 11.1054 6.80859 6.27091 12.0797 5.21438C15.0809 4.60607 18.1506 5.33444 20.5957 7.14335C21.2812 7.65561 21.9211 8.24791 22.5 8.92826C22.8199 8.54406 23.1627 8.19188 23.5283 7.86372C23.8102 7.60759 24.0996 7.36747 24.4043 7.14335C26.8494 5.33444 29.9191 4.60607 32.9203 5.20637C38.1914 6.26291 42 11.1054 42 16.7402V17.0043C42 20.358 40.6746 23.5597 38.3361 25.8408L24.9908 38.8634L24.8004 39.0475C24.1758 39.6558 23.3531 40 22.5 40C21.6469 40 20.8242 39.6638 20.1996 39.0475ZM21.2127 13.1784C21.1822 13.1544 21.1594 13.1224 21.1365 13.0904L19.7807 11.4896L19.773 11.4816C18.0135 9.4085 15.3551 8.46402 12.7652 8.98429C9.21562 9.69665 6.65625 12.9463 6.65625 16.7402V17.0043C6.65625 19.2855 7.5627 21.4706 9.15469 23.0234L22.5 36.046L35.8453 23.0234C37.4373 21.4706 38.3438 19.2855 38.3438 17.0043V16.7402C38.3438 12.9543 35.7844 9.69665 32.2424 8.98429C29.6525 8.46402 26.9865 9.4165 25.2346 11.4816C25.2346 11.4816 25.2346 11.4816 25.227 11.4896C25.2193 11.4976 25.227 11.4896 25.2193 11.4976L23.8635 13.0984C23.8406 13.1304 23.8102 13.1544 23.7873 13.1864C23.4445 13.5466 22.9799 13.7467 22.5 13.7467C22.0201 13.7467 21.5555 13.5466 21.2127 13.1864V13.1784Z" fill="var(--fill-0, #2C2C2C)"/>
</g>
</svg>
