<svg preserveAspectRatio="none" width="100%" height="100%" overflow="visible" style="display: block;" viewBox="0 0 24 24" fill="none" xmlns="http://www.w3.org/2000/svg">
<g id="wishlist-icon.1345c266e68871fdd7b62ace4997580a.svg">
<path id="Vector" fill-rule="evenodd" clip-rule="evenodd" d="M3.7307 11.6548C5.06074 15.7928 10.3154 19.1388 11.7118 19.967C13.113 19.1303 18.4056 15.7474 19.693 11.6586C20.5382 9.01564 19.7537 5.6678 16.6363 4.66318C15.126 4.1784 13.3644 4.47344 12.1482 5.41451C11.894 5.60994 11.5411 5.61373 11.2849 5.42021C9.99664 4.45162 8.31371 4.16797 6.77971 4.66318C3.66715 5.66686 2.88545 9.01469 3.7307 11.6548ZM11.7123 21.5C11.5947 21.5 11.478 21.4716 11.3718 21.4136C11.0748 21.2514 4.08032 17.396 2.37558 12.0893L2.37463 12.0883C1.30454 8.74711 2.49606 4.54834 6.34289 3.30842C8.14915 2.72405 10.1176 2.98114 11.7095 3.98578C13.252 3.01055 15.3011 2.74112 17.0713 3.30842C20.922 4.55023 22.1173 8.74806 21.0481 12.0883C19.3984 17.3344 12.3527 21.2477 12.0539 21.4117C11.9476 21.4706 11.83 21.5 11.7123 21.5Z" fill="var(--fill-0, #211A1E)"/>
</g>
</svg>
