<svg preserveAspectRatio="none" width="100%" height="100%" overflow="visible" style="display: block;" viewBox="0 0 16 16" fill="none" xmlns="http://www.w3.org/2000/svg">
<g id="Frame">
<path d="M16 16H0V0H16V16Z" stroke="var(--stroke-0, #E5E7EB)"/>
<path id="Vector" d="M1.51562 7H1.25C0.834375 7 0.5 6.66562 0.5 6.25V2.25C0.5 1.94688 0.68125 1.67187 0.9625 1.55625C1.24375 1.44062 1.56562 1.50312 1.78125 1.71875L3.08125 3.01875C5.81875 0.315625 10.2281 0.325 12.95 3.05C15.6844 5.78438 15.6844 10.2156 12.95 12.95C10.2156 15.6844 5.78437 15.6844 3.05 12.95C2.65937 12.5594 2.65937 11.925 3.05 11.5344C3.44062 11.1438 4.075 11.1438 4.46562 11.5344C6.41875 13.4875 9.58438 13.4875 11.5375 11.5344C13.4906 9.58125 13.4906 6.41563 11.5375 4.4625C9.59375 2.51875 6.45312 2.50938 4.49687 4.43125L5.78125 5.71875C5.99688 5.93437 6.05937 6.25625 5.94375 6.5375C5.82812 6.81875 5.55312 7 5.25 7H1.51562Z" fill="var(--fill-0, #9CA3AF)"/>
</g>
</svg>
