<svg preserveAspectRatio="none" width="100%" height="100%" overflow="visible" style="display: block;" viewBox="0 0 22 22" fill="none" xmlns="http://www.w3.org/2000/svg">
<g id="Frame">
<path id="Vector" fill-rule="evenodd" clip-rule="evenodd" d="M5.753 7.931C5.91058 7.77939 6.12192 7.69654 6.34055 7.70067C6.55919 7.70479 6.76725 7.79555 6.919 7.953L11 12.2848L15.081 7.953C15.1552 7.87122 15.245 7.80516 15.3452 7.75874C15.4454 7.71232 15.5539 7.68648 15.6642 7.68275C15.7746 7.67903 15.8845 7.69748 15.9876 7.73704C16.0907 7.77659 16.1848 7.83643 16.2643 7.91302C16.3438 7.9896 16.4072 8.08137 16.4506 8.18289C16.494 8.28441 16.5166 8.39361 16.5171 8.50402C16.5175 8.61443 16.4958 8.7238 16.4532 8.82566C16.4105 8.92752 16.3479 9.01979 16.269 9.097L11.594 14.047C11.517 14.1268 11.4248 14.1904 11.3227 14.2337C11.2207 14.2771 11.1109 14.2995 11 14.2995C10.8891 14.2995 10.7793 14.2771 10.6773 14.2337C10.5752 14.1904 10.483 14.1268 10.406 14.047L5.731 9.097C5.57939 8.93942 5.49654 8.72808 5.50067 8.50945C5.50479 8.29081 5.59555 8.08275 5.753 7.931Z" fill="var(--fill-0, #2C2C2C)"/>
</g>
</svg>
